# AST/ASF file generated using VICON BodyLanguage
# -----------------------------------------------
:version 1.10
:name VICON
:units
  mass 1.0
  length 0.45
  angle deg
:documentation
   .ast/.asf automatically generated from VICON data using
   VICON BodyBuilder and BodyLanguage model FoxedUp or BRILLIANT.MOD
:root
   order TX TY TZ RX RY RZ
   axis XYZ
   position 0 0 0  
   orientation 0 0 0 
:bonedata
  begin
     id 1 
     name lhipjoint
     direction 0.602128 -0.715006 0.355257 
     length 2.21237 
     axis 0 0 0  XYZ
  end
  begin
     id 2 
     name lfemur
     direction 0.34202 -0.939693 0  
     length 6.71649  
     axis 0 0 20  XYZ
    dof rx ry rz
    limits (-160.0 20.0)
           (-70.0 70.0)
           (-60.0 70.0)
  end
  begin
     id 3 
     name ltibia
     direction 0.34202 -0.939693 0   
     length 6.97123   
     axis 0 0 20   XYZ
    dof rx
    limits (-10.0 170.0)
  end
  begin
     id 4 
     name lfoot
     direction 0.0655697 -0.180151 0.981451   
     length 1.80924   
     axis -90 7.62852e-016 20   XYZ
    dof rx rz
    limits (-45.0 90.0)
           (-70.0 20.0)
  end
  begin
     id 5 
     name ltoes
     direction 1.53545e-011 -4.21827e-011 1   
     length 0.916331   
     axis -90 7.62852e-016 20   XYZ
    dof rx
    limits (-90.0 20.0)
  end
  begin
     id 6 
     name rhipjoint
     direction -0.625414 -0.698792 0.347201   
     length 2.2637  
     axis 0 0 0  XYZ 
  end
  begin
     id 7 
     name rfemur
     direction -0.34202 -0.939693 0   
     length 7.07595   
     axis 0 0 -20   XYZ
    dof rx ry rz
    limits (-160.0 20.0)
           (-70.0 70.0)
           (-70.0 60.0)
  end
  begin
     id 8 
     name rtibia
     direction -0.34202 -0.939693 0   
     length 7.22924   
     axis 0 0 -20   XYZ
    dof rx
    limits (-10.0 170.0)
 end
 begin
     id 9 
     name rfoot
     direction -0.0766747 -0.210662 0.974547   
     length 1.98482  
     axis -90 -7.62852e-016 -20   XYZ
    dof rx rz
    limits (-45.0 90.0)
           (-20.0 70.0)
  end
  begin
     id 10 
     name rtoes
     direction -1.53532e-011 -4.21867e-011 1   
     length 0.999842   
     axis -90 -7.62852e-016 -20   XYZ
    dof rx
    limits (-90.0 20.0)
  end
  begin
     id 11 
     name lowerback
     direction -0.0224668 0.997354 -0.0691422   
     length 2.09945   
     axis 0 0 0   XYZ
    dof rx ry rz
    limits (-20.0 45.0)
           (-30.0 30.0)
           (-30.0 30.0)
  end
  begin
     id 12 
     name upperback
     direction 0.0134698 0.998451 -0.0539888   
     length 2.09758   
     axis 0 0 0   XYZ
    dof rx ry rz
    limits (-20.0 45.0)
           (-30.0 30.0)
           (-30.0 30.0)
  end
  begin
     id 13 
     name thorax
     direction 0.0241905 0.99948 -0.0213333   
     length 2.10428   
     axis 0 0 0   XYZ
    dof rx ry rz
    limits (-20.0 45.0)
           (-30.0 30.0)
           (-30.0 30.0)
  end
  begin
     id 14 
     name lowerneck
     direction -0.00866847 0.995978 0.0891737   
     length 1.3959   
     axis 0 0 0   XYZ
    dof rx ry rz
    limits (-20.0 45.0)
           (-30.0 30.0)
           (-30.0 30.0)
  end
  begin
     id 15 
     name upperneck
     direction 0.0680679 0.992203 0.104404   
     length 1.39452   
     axis 0 0 0   XYZ
    dof rx ry rz
    limits (-20.0 45.0)
           (-30.0 30.0)
           (-30.0 30.0)
  end
  begin
     id 16
     name head
     direction 0.0242216 0.999358 0.0264054  
     length 1.40433  
     axis 0 0 0   XYZ
    dof rx ry rz
    limits (-20.0 45.0)
           (-30.0 30.0)
           (-30.0 30.0)
  end
  begin
     id 17 
     name lclavicle
     direction 0.929368 0.362991 -0.0671771  
     length 3.04887  
     axis 0 0 0   XYZ
    dof ry rz
    limits (-20.0 10.0)
           (0.0 20.0)
  end
  begin
     id 18 
     name lhumerus
     direction 1 -4.48967e-011 -7.13741e-028   
     length 4.77195   
     axis -180 -30 -90   XYZ
    dof rx ry rz
    limits (-60.0 90.0)
           (-90.0 90.0)
           (-90.0 90.0)
  end
  begin
     id 19
     name lradius
     direction 1 -4.48977e-011 3.60404e-027   
     length 2.98444   
     axis -180 -30 -90   XYZ
    dof rx
    limits (-10.0 170.0)
  end
  begin
     id 20
     name lwrist
     direction 1 -4.48997e-011 7.54877e-027   
     length 1.49222   
     axis -7.18178e-015 90 90   XYZ
    dof ry
    limits (-180.0 0.0)
 end
  begin
     id 21 
     name lhand
     direction 1 -4.489e-011 1.51105e-026   
     length 0.992285   
     axis -9.63605e-015 90 90   XYZ
    dof rx rz
    limits (-90.0 90.0)
           (-45.0 45.0)
  end
  begin
     id 22 
     name lfingers
     direction 1 -4.48998e-011 3.01948e-026   
     length 0.800006   
     axis -1.92718e-014 90 90   XYZ
    dof rx
    limits (0.0 90.0)
  end
  begin
     id 23
     name lthumb
     direction 0.707107 -6.34881e-011 0.707107   
     length 1.14865   
     axis -90 45 -3.53137e-014   XYZ
    dof rx rz
    limits (-45.0 45.0)
           (-45.0 45.0)
  end
  begin
     id 24 
     name rclavicle
     direction -0.945672 0.324529 0.0196374   
     length 3.4236  
     axis 0 0 0   XYZ 
    dof ry rz
    limits (-10.0 20.0)
           (-20.0 0.0)
  end
  begin
     id 25 
     name rhumerus
     direction -1 -4.4896e-011 1.02757e-029  
     length 4.62052   
     axis -180 30 90   XYZ
    dof rx ry rz
    limits (-90.0 60.0)
           (-90.0 90.0)
           (-90.0 90.0)
  end
  begin
     id 26 
     name rradius
     direction -1 -4.48982e-011 3.85962e-027   
     length 2.95332   
     axis -180 30 90   XYZ
    dof rx
    limits (-10.0 170.0)
  end
  begin
     id 27 
     name rwrist
     direction -1 -4.48961e-011 7.55118e-027   
     length 1.47666   
     axis -7.18178e-015 -90 -90   XYZ
    dof ry
    limits (-180.0 0.0)
  end
  begin
     id 28
     name rhand
     direction -1 -4.48984e-011 1.50994e-026   
     length 0.990956   
     axis -9.63605e-015 -90 -90   XYZ
    dof rx rz
    limits (-90.0 90.0)
           (-45.0 45.0)
  end
  begin
     id 29
     name rfingers
     direction -1 -4.4892e-011 3.02158e-026   
     length 0.798934   
     axis -1.92718e-014 -90 -90   XYZ
    dof rx
    limits (0.0 90.0)
  end
  begin
     id 30
     name rthumb
     direction -0.707107 -6.34916e-011 0.707107   
     length 1.14711   
     axis -90 -45 3.53137e-014   XYZ
    dof rx rz
    limits (-45.0 45.0)
           (-45.0 45.0)
  end
:hierarchy
  begin
    root lhipjoint rhipjoint lowerback
    lhipjoint lfemur
    lfemur ltibia
    ltibia lfoot
    lfoot ltoes
    rhipjoint rfemur
    rfemur rtibia
    rtibia rfoot
    rfoot rtoes
    lowerback upperback
    upperback thorax
    thorax lowerneck lclavicle rclavicle
    lowerneck upperneck
    upperneck head
    lclavicle lhumerus
    lhumerus lradius
    lradius lwrist
    lwrist lhand lthumb
    lhand lfingers
    rclavicle rhumerus
    rhumerus rradius
    rradius rwrist
    rwrist rhand rthumb
    rhand rfingers
  end

#!OML:ASF H:\ManfredObstacles\Project 1\Capture day 1\Session 1\Male.ASF
:FULLY-SPECIFIED
:DEGREES
413
root 4.13371 16.4785 -0.024792 -168.974 -5.06154 -175.206
lowerback -0.714484 -2.32302 -0.360593
upperback 4.63708 -3.29497 0.205968
thorax 5.22225 -1.73533 0.233773
lowerneck 4.84898 -4.36563 -5.59684
upperneck -14.424 -3.74119 14.697
head -4.64 -2.10264 5.70281
rclavicle 1.35174e-014 -9.54166e-015
rhumerus -35.6227 -20.7218 -79.4639
rradius 34.5906
rwrist 25.6765
rhand 1.23476 -3.57465
rfingers 7.12502
rthumb 26.7725 -31.7001
lclavicle 1.35174e-014 -9.54166e-015
lhumerus -19.3756 -0.569532 84.4028
lradius 25.0876
lwrist -20.0366
lhand -15.9341 9.27443
lfingers 7.12502
lthumb 10.2637 39.004
rfemur -37.6251 -5.71655 24.8565
rtibia 41.9531
rfoot -17.8043 5.19307
rtoes 5.82027
lfemur -19.4848 -0.379038 -18.0741
ltibia 24.1737
lfoot -3.38801 -18.7752
ltoes 21.9823
414
root 4.11683 16.4782 -0.152649 -169.449 -5.12431 -175.37
lowerback -0.884501 -2.38135 -0.449098
upperback 4.63207 -3.36758 0.230152
thorax 5.32154 -1.77408 0.295796
lowerneck 4.70089 -4.41501 -5.53604
upperneck -14.3432 -3.83739 14.5261
head -4.58596 -2.1397 5.63409
rclavicle 3.97569e-015 8.74653e-015
rhumerus -36.1357 -21.729 -78.5439
rradius 33.7073
rwrist 26.7462
rhand 1.18269 -3.54757
rfingers 7.12502
rthumb 26.7227 -31.6806
lclavicle 3.97569e-015 8.74653e-015
lhumerus -19.1146 -1.29612 84.8526
lradius 25.0299
lwrist -19.7016
lhand -15.8593 9.12968
lfingers 7.12502
lthumb 10.3359 38.8557
rfemur -37.371 -5.96772 24.537
rtibia 39.8072
rfoot -16.9761 5.58471
rtoes 7.73113
lfemur -18.0427 -0.109707 -18.3142
ltibia 23.4133
lfoot -3.26093 -19.1979
ltoes 22.3256
415
root 4.10126 16.4798 -0.28044 -169.938 -5.15779 -175.537
lowerback -1.00219 -2.39983 -0.534812
upperback 4.60937 -3.38571 0.244986
thorax 5.37113 -1.78538 0.352655
lowerneck 4.89043 -4.46335 -5.49021
upperneck -14.4603 -3.91857 14.3823
head -4.65127 -2.18666 5.59291
rclavicle 1.55052e-014 1.90833e-014
rhumerus -36.7835 -22.6503 -77.6298
rradius 32.8665
rwrist 27.612
rhand 1.06218 -3.94042
rfingers 7.12502
rthumb 26.6074 -32.091
lclavicle 1.55052e-014 1.90833e-014
lhumerus -18.8981 -1.6728 85.2734
lradius 24.9058
lwrist -19.781
lhand -15.7839 8.96709
lfingers 7.12502
lthumb 10.4086 38.6895
rfemur -37.0271 -6.02588 24.1423
rtibia 37.6819
rfoot -16.5782 5.89358
rtoes 7.06208
lfemur -16.5379 0.285659 -18.5455
ltibia 22.5578
lfoot -2.94002 -19.6762
ltoes 22.9392
416
root 4.08866 16.4822 -0.404847 -170.346 -5.21822 -175.683
lowerback -1.11542 -2.47825 -0.618089
upperback 4.58338 -3.48464 0.276141
thorax 5.41706 -1.83698 0.420446
lowerneck 4.98129 -4.46551 -5.51492
upperneck -14.4893 -3.94788 14.2716
head -4.67537 -2.20181 5.56675
rclavicle 1.53064e-014 0
rhumerus -37.2499 -23.4412 -76.8099
rradius 31.881
rwrist 28.4036
rhand 0.959434 -4.56203
rfingers 7.12502
rthumb 26.509 -32.7275
lclavicle 1.53064e-014 0
lhumerus -18.5946 -1.68666 85.5807
lradius 24.6213
lwrist -20.0128
lhand -15.7503 8.89487
lfingers 7.12502
lthumb 10.4411 38.6156
rfemur -36.7159 -5.86869 23.7012
rtibia 35.6125
rfoot -16.0247 6.05034
rtoes 6.50516
lfemur -15.132 0.664274 -18.7166
ltibia 21.6407
lfoot -2.55129 -20.1111
ltoes 23.9142
417
root 4.07844 16.4846 -0.527527 -170.865 -5.25415 -175.881
lowerback -1.02166 -2.55999 -0.744496
upperback 4.60267 -3.59259 0.263181
thorax 5.39264 -1.89737 0.474952
lowerneck 4.72552 -4.45941 -5.47835
upperneck -14.2655 -3.97821 14.1414
head -4.565 -2.20238 5.50518
rclavicle 4.17448e-015 3.4191e-014
rhumerus -37.6308 -24.5225 -75.8838
rradius 30.7907
rwrist 29.6636
rhand 1.19705 -4.79449
rfingers 7.12502
rthumb 26.7364 -32.9254
lclavicle 4.17448e-015 3.4191e-014
lhumerus -18.3519 -1.71379 85.8334
lradius 24.3839
lwrist -20.1804
lhand -15.7608 8.85974
lfingers 7.12502
lthumb 10.4309 38.581
rfemur -36.2164 -5.67956 23.2055
rtibia 33.6379
rfoot -15.6089 6.108
rtoes 5.68419
lfemur -13.595 0.8501 -18.908
ltibia 20.6995
lfoot -2.32073 -20.3426
ltoes 24.6762
418
root 4.07144 16.4896 -0.653508 -171.271 -5.37755 -176.014
lowerback -1.06536 -2.63567 -0.796063
upperback 4.61371 -3.69217 0.266006
thorax 5.43463 -1.94916 0.497819
lowerneck 4.47988 -4.47249 -5.39424
upperneck -14.0578 -4.02336 14.025
head -4.46092 -2.2128 5.44152
rclavicle -1.15295e-014 7.95139e-015
rhumerus -38.1467 -26.0186 -74.758
rradius 29.8528
rwrist 31.3348
rhand 1.67162 -4.71764
rfingers 7.12502
rthumb 27.1905 -32.7784
lclavicle -1.15295e-014 7.95139e-015
lhumerus -18.2179 -1.76191 86.0983
lradius 24.2238
lwrist -20.4897
lhand -15.7303 8.80494
lfingers 7.12502
lthumb 10.4604 38.5247
rfemur -35.8025 -5.61737 22.8604
rtibia 31.7902
rfoot -15.1702 6.21637
rtoes 6.458
lfemur -12.2004 0.81629 -18.9995
ltibia 19.7834
lfoot -2.24906 -20.3183
ltoes 24.3659
419
root 4.06547 16.4903 -0.781279 -171.594 -5.5608 -176.089
lowerback -1.16602 -2.71386 -0.759912
upperback 4.58684 -3.7946 0.287012
thorax 5.46498 -1.997 0.488749
lowerneck 4.41176 -4.50756 -5.37267
upperneck -13.9456 -4.09161 13.9786
head -4.41038 -2.24364 5.41991
rclavicle -2.68359e-014 -1.51076e-014
rhumerus -38.7401 -27.3769 -73.6435
rradius 29.0135
rwrist 32.7386
rhand 1.91548 -4.65769
rfingers 7.12502
rthumb 27.4238 -32.6817
lclavicle -2.68359e-014 -1.51076e-014
lhumerus -18.1336 -1.77538 86.3628
lradius 24.0919
lwrist -20.8779
lhand -15.4178 8.97629
lfingers 7.12502
lthumb 10.7618 38.6806
rfemur -35.4919 -5.6015 22.6037
rtibia 30.1157
rfoot -14.5158 6.25105
rtoes 7.95836
lfemur -10.9122 0.694896 -19.0131
ltibia 18.9068
lfoot -2.16128 -20.1908
ltoes 23.4788
420
root 4.06118 16.4897 -0.90959 -171.764 -5.72949 -176.095
lowerback -1.37121 -2.77891 -0.653045
upperback 4.51372 -3.87746 0.33142
thorax 5.50289 -2.03003 0.461497
lowerneck 4.42809 -4.54784 -5.4421
upperneck -13.93 -4.14825 14.0437
head -4.39871 -2.2725 5.45415
rclavicle 1.98785e-016 1.43125e-014
rhumerus -39.3046 -28.3665 -72.6623
rradius 28.1994
rwrist 33.746
rhand 1.84003 -4.53609
rfingers 7.12502
rthumb 27.3516 -32.5715
lclavicle 1.98785e-016 1.43125e-014
lhumerus -17.9714 -1.89688 86.6585
lradius 23.8644
lwrist -20.977
lhand -15.0468 9.2578
lfingers 7.12502
lthumb 11.1196 38.9432
rfemur -35.3434 -5.56481 22.4812
rtibia 28.6435
rfoot -14.2335 5.99638
rtoes 8.45759
lfemur -9.82202 0.512206 -18.9429
ltibia 18.1068
lfoot -1.89157 -20.0712
ltoes 23.5301
421
root 4.05891 16.4929 -1.03713 -171.692 -5.88033 -176.035
lowerback -1.77303 -2.81477 -0.475539
upperback 4.39127 -3.91798 0.38476
thorax 5.59633 -2.03586 0.397495
lowerneck 4.46187 -4.60276 -5.48723
upperneck -14.0057 -4.20732 14.1089
head -4.41777 -2.30314 5.48767
rclavicle 3.04141e-014 1.82882e-014
rhumerus -39.8955 -29.1496 -71.8457
rradius 27.6296
rwrist 34.3314
rhand 1.6873 -4.49204
rfingers 7.12502
rthumb 27.2055 -32.5504
lclavicle 3.04141e-014 1.82882e-014
lhumerus -17.8782 -2.24879 87.005
lradius 23.6438
lwrist -20.8694
lhand -14.9855 9.29923
lfingers 7.12502
lthumb 11.1787 38.9814
rfemur -35.4859 -5.63391 22.566
rtibia 27.4014
rfoot -13.8335 5.64219
rtoes 7.1649
lfemur -9.04524 0.275103 -18.8056
ltibia 17.3862
lfoot -1.6515 -19.9133
ltoes 23.6898
422
root 4.05894 16.4939 -1.16811 -171.621 -6.01465 -175.883
lowerback -2.13435 -2.8675 -0.226429
upperback 4.24319 -3.98682 0.460239
thorax 5.63659 -2.05324 0.317576
lowerneck 4.53721 -4.59938 -5.44793
upperneck -14.0605 -4.19547 14.0875
head -4.45039 -2.30135 5.47789
rclavicle 3.77691e-015 3.02153e-014
rhumerus -40.5986 -29.6042 -71.2147
rradius 27.4691
rwrist 34.6741
rhand 1.8328 -4.72069
rfingers 7.12502
rthumb 27.3447 -32.7572
lclavicle 3.77691e-015 3.02153e-014
lhumerus -18.0705 -2.75851 87.3641
lradius 23.6239
lwrist -20.671
lhand -15.027 9.276
lfingers 7.12502
lthumb 11.1387 38.9604
rfemur -35.6631 -5.86873 22.8864
rtibia 26.4033
rfoot -13.1618 5.41483
rtoes 5.34141
lfemur -8.25623 0.147128 -18.5631
ltibia 16.6848
lfoot -1.65109 -19.8662
ltoes 22.8347
423
root 4.06185 16.487 -1.30083 -171.686 -6.1367 -175.776
lowerback -2.38489 -2.93702 -0.0191441
upperback 4.18211 -4.08441 0.491623
thorax 5.70464 -2.08939 0.215846
lowerneck 4.40501 -4.54347 -5.3146
upperneck -13.9316 -4.11857 14.0359
head -4.40217 -2.25993 5.42833
rclavicle 1.72943e-014 1.11319e-014
rhumerus -41.1476 -30.3738 -70.488
rradius 27.0595
rwrist 35.6162
rhand 2.1263 -4.75363
rfingers 7.12502
rthumb 27.6254 -32.7455
lclavicle 1.72943e-014 1.11319e-014
lhumerus -18.1456 -3.27962 87.6562
lradius 23.5478
lwrist -20.5662
lhand -14.8639 9.37161
lfingers 7.12502
lthumb 11.296 39.0474
rfemur -35.6749 -6.17508 23.2264
rtibia 25.6052
rfoot -12.5559 5.24614
rtoes 4.07084
lfemur -7.26596 -0.0133764 -18.3665
ltibia 15.9103
lfoot -1.63674 -19.7916
ltoes 22.8583
424
root 4.06998 16.4815 -1.43468 -171.69 -6.30723 -175.735
lowerback -2.70519 -2.99881 0.128635
upperback 4.15277 -4.16907 0.479488
thorax 5.84648 -2.12043 0.0972334
lowerneck 4.16004 -4.52149 -5.2146
upperneck -13.708 -4.08898 14.0574
head -4.29785 -2.23739 5.40292
rclavicle 1.88845e-014 -7.15625e-015
rhumerus -41.6069 -30.9795 -69.9765
rradius 26.7599
rwrist 36.2104
rhand 2.39149 -4.71209
rfingers 7.12502
rthumb 27.8789 -32.6631
lclavicle 1.88845e-014 -7.15625e-015
lhumerus -18.0643 -3.91594 87.897
lradius 23.4085
lwrist -20.6213
lhand -14.6034 9.43648
lfingers 7.12502
lthumb 11.5472 39.0984
rfemur -35.7083 -6.42343 23.4773
rtibia 24.9121
rfoot -12.0322 5.10407
rtoes 2.79887
lfemur -6.39246 -0.371525 -18.2204
ltibia 15.2261
lfoot -1.58953 -19.5701
ltoes 23.8373
425
root 4.07904 16.4875 -1.57299 -171.494 -6.48375 -175.587
lowerback -3.18048 -3.06722 0.341341
upperback 4.03134 -4.2645 0.543338
thorax 5.98096 -2.15232 0.0137796
lowerneck 4.18289 -4.51373 -5.23581
upperneck -13.6918 -4.07078 14.1291
head -4.29607 -2.23096 5.42878
rclavicle 1.45113e-014 -1.27222e-014
rhumerus -42.0211 -31.241 -69.5982
rradius 26.5725
rwrist 36.3554
rhand 2.62256 -4.82611
rfingers 7.12502
rthumb 28.0998 -32.7411
lclavicle 1.45113e-014 -1.27222e-014
lhumerus -18.1305 -4.51713 88.213
lradius 23.3561
lwrist -20.5595
lhand -14.3874 9.45169
lfingers 7.12502
lthumb 11.7556 39.1018
rfemur -35.974 -6.46904 23.7579
rtibia 24.3017
rfoot -11.4698 5.04073
rtoes 1.05337
lfemur -5.72906 -0.60221 -17.9388
ltibia 14.5303
lfoot -1.50765 -19.4499
ltoes 24.5238
426
root 4.09282 16.4722 -1.71524 -171.495 -6.74386 -175.506
lowerback -3.44851 -3.18546 0.384383
upperback 3.97254 -4.42686 0.648189
thorax 6.07863 -2.22958 0.0701716
lowerneck 4.23985 -4.51204 -5.13323
upperneck -13.7983 -4.06655 13.9871
head -4.34551 -2.23071 5.3713
rclavicle 2.98177e-014 1.35174e-014
rhumerus -42.3726 -31.2365 -69.3392
rradius 26.5614
rwrist 36.2388
rhand 2.95903 -5.09368
rfingers 7.12502
rthumb 28.4214 -32.9555
lclavicle 2.98177e-014 1.35174e-014
lhumerus -18.2337 -4.63716 88.5772
lradius 23.307
lwrist -20.6556
lhand -14.1285 9.41212
lfingers 7.12502
lthumb 12.0052 39.0478
rfemur -35.8796 -6.68685 24.0468
rtibia 23.7315
rfoot -11.4856 5.04129
rtoes -0.721199
lfemur -4.81222 -0.656868 -17.6968
ltibia 13.786
lfoot -1.27148 -19.6166
ltoes 25.2243
